<svg width="21" height="21" viewBox="0 0 21 21" fill="none" xmlns="http://www.w3.org/2000/svg">
<path d="M8.76667 16.2333V1.33333C8.76667 0.955556 8.89444 0.638889 9.15 0.383333C9.40556 0.127778 9.72222 0 10.1 0C10.4778 0 10.7944 0.127778 11.05 0.383333C11.3056 0.638889 11.4333 0.955556 11.4333 1.33333V16.2333L17.9667 9.7C18.2333 9.43333 18.5444 9.30556 18.9 9.31667C19.2556 9.32778 19.5667 9.46667 19.8333 9.73333C20.0778 10 20.2056 10.3111 20.2167 10.6667C20.2278 11.0222 20.1 11.3333 19.8333 11.6L11.0333 20.4C10.9 20.5333 10.7556 20.6278 10.6 20.6833C10.4444 20.7389 10.2778 20.7667 10.1 20.7667C9.92222 20.7667 9.75556 20.7389 9.6 20.6833C9.44444 20.6278 9.3 20.5333 9.16667 20.4L0.366667 11.6C0.122222 11.3556 0 11.05 0 10.6833C0 10.3167 0.122222 10 0.366667 9.73333C0.633333 9.46667 0.95 9.33333 1.31667 9.33333C1.68333 9.33333 2 9.46667 2.26667 9.73333L8.76667 16.2333Z" fill="#5B5B5B"/>
</svg>
